# xmcd CD database file
#
# Track frame offsets:
#	150
#	13467
#	28532
#	46297
#	61835
#	78962
#	97740
#	113577
#	131740
#	143927
#	158180
#
# Disc length: 2309 seconds
#
# Revision: 2
# Processed by: cddbd v1.5.2PL0 Copyright (c) Steve Scherf et al.
# Submitted via: CDex 1.72
#
DISCID=8709030b
DTITLE=McClinton, Delbert (USA-11-Best Of D.M.-bls.rck) - Best Of Delbert McClinton
DYEAR=2011
DGENRE=Blues-Rock
TTITLE0=A Fool In Love
TTITLE1=The Real Thing
TTITLE2=I've Got Dreams To Remember
TTITLE3=Heartbreak Radio
TTITLE4=Given' It Up For Your Love
TTITLE5=Go On
TTITLE6=Take Me To The River
TTITLE7=I Want To Love You
TTITLE8=Who's Foolin' Who
TTITLE9=ShotGun Rider
TTITLE10=I Wanna Thank You Baby
EXTD=YEAR: 2011
EXTT0=
EXTT1=
EXTT2=
EXTT3=
EXTT4=
EXTT5=
EXTT6=
EXTT7=
EXTT8=
EXTT9=
EXTT10=
PLAYORDER=
